<?xml version="1.0" encoding="UTF-8" standalone="no"?>
<svg
   xmlns:dc="http://purl.org/dc/elements/1.1/"
   xmlns:cc="http://creativecommons.org/ns#"
   xmlns:rdf="http://www.w3.org/1999/02/22-rdf-syntax-ns#"
   xmlns:svg="http://www.w3.org/2000/svg"
   xmlns="http://www.w3.org/2000/svg"
   xmlns:sodipodi="http://sodipodi.sourceforge.net/DTD/sodipodi-0.dtd"
   xmlns:inkscape="http://www.inkscape.org/namespaces/inkscape"
   id="Layer"
   enable-background="new 0 0 64 64"
   height="24"
   viewBox="0 0 3 3"
   width="24"
   version="1.1"
   inkscape:version="0.91 r13725"
   sodipodi:docname="icon.svg">
  <metadata
     id="metadata11">
    <rdf:RDF>
      <cc:Work
         rdf:about="">
        <dc:format>image/svg+xml</dc:format>
        <dc:type
           rdf:resource="http://purl.org/dc/dcmitype/StillImage" />
        <dc:title></dc:title>
      </cc:Work>
    </rdf:RDF>
  </metadata>
  <defs
     id="defs9" />
  <sodipodi:namedview
     pagecolor="#ffffff"
     bordercolor="#666666"
     borderopacity="1"
     objecttolerance="10"
     gridtolerance="10"
     guidetolerance="10"
     inkscape:pageopacity="0"
     inkscape:pageshadow="2"
     inkscape:window-width="1581"
     inkscape:window-height="1131"
     id="namedview7"
     showgrid="false"
     inkscape:zoom="20.85965"
     inkscape:cx="15.684724"
     inkscape:cy="16.20101"
     inkscape:window-x="1545"
     inkscape:window-y="139"
     inkscape:window-maximized="0"
     inkscape:current-layer="Layer" />
  <path
     d="m 0.12311009,1.125 2.44825001,0 -0.224125,0.224125 c -0.04881,0.04881 -0.04881,0.127938 0,0.17675 0.024438,0.024438 0.056375,0.036625 0.088375,0.036625 0.032,0 0.06394,-0.01219 0.08837,-0.03663 l 0.4375,-0.4375 c 0.04881,-0.04881 0.04881,-0.127938 0,-0.17675 l -0.4375,-0.43750006 c -0.04881,-0.04881 -0.127937,-0.04881 -0.17675,0 -0.04881,0.04881 -0.04881,0.127938 0,0.17675 l 0.224125,0.22412501 -2.44825001,0 c -0.069,0 -0.125,0.0559997 -0.125,0.12500005 0,0.069 0.056,0.125 0.125,0.125 z"
     id="path3"
     inkscape:connector-curvature="0" />
  <path
     d="m 2.8731101,1.875 -2.44825,0 0.224125,-0.224125 c 0.048813,-0.04881 0.048813,-0.127938 0,-0.17675 -0.04875,-0.04881 -0.128,-0.04881 -0.17675,0 l -0.43750001,0.4375 c -0.048813,0.04881 -0.048813,0.127938 0,0.17675 l 0.43750001,0.4375 c 0.024375,0.024438 0.056375,0.036625 0.088375,0.036625 0.032,0 0.064,-0.01219 0.088375,-0.03663 0.048813,-0.04881 0.048813,-0.127938 0,-0.17675 L 0.4248601,2.125 l 2.44825,0 c 0.069,0 0.125,-0.056 0.125,-0.125 0,-0.069 -0.056,-0.125 -0.125,-0.125 z"
     id="path5"
     inkscape:connector-curvature="0" />
</svg>
